<?xml version="1.0" encoding="UTF-8" standalone="no"?>
<!-- Created with Inkscape (http://www.inkscape.org/) -->

<svg
   xmlns:dc="http://purl.org/dc/elements/1.1/"
   xmlns:cc="http://creativecommons.org/ns#"
   xmlns:rdf="http://www.w3.org/1999/02/22-rdf-syntax-ns#"
   xmlns:svg="http://www.w3.org/2000/svg"
   xmlns="http://www.w3.org/2000/svg"
   xmlns:xlink="http://www.w3.org/1999/xlink"
   xmlns:sodipodi="http://sodipodi.sourceforge.net/DTD/sodipodi-0.dtd"
   xmlns:inkscape="http://www.inkscape.org/namespaces/inkscape"
   width="1000"
   height="497.37399"
   viewBox="0 0 264.58333 131.59687"
   version="1.1"
   id="svg1470"
   inkscape:version="0.92.2 (5c3e80d, 2017-08-06)"
   sodipodi:docname="Grand Theft Auto 1997.svg">
  <defs
     id="defs1464">
    <linearGradient
       id="linearGradient4596">
      <stop
         style="stop-color:#c7d1bd;stop-opacity:1;"
         offset="0"
         id="stop4598" />
      <stop
         style="stop-color:#638e30;stop-opacity:1;"
         offset="1"
         id="stop4600" />
    </linearGradient>
    <linearGradient
       id="linearGradient3962">
      <stop
         id="stop3964"
         offset="0"
         style="stop-color:#f8f100;stop-opacity:1;" />
      <stop
         id="stop3966"
         offset="1"
         style="stop-color:#ff8f42;stop-opacity:1;" />
    </linearGradient>
    <linearGradient
       gradientUnits="userSpaceOnUse"
       y2="1100.8104"
       x2="360.94864"
       y1="1182.5707"
       x1="236.13686"
       id="linearGradient3968"
       xlink:href="#linearGradient3962"
       inkscape:collect="always" />
    <linearGradient
       gradientTransform="matrix(0.27768851,0,0,0.27768851,0.33757407,15.409173)"
       gradientUnits="userSpaceOnUse"
       y2="869.39905"
       x2="662.75549"
       y1="949.1167"
       x1="524.68042"
       id="linearGradient3976"
       xlink:href="#linearGradient3962"
       inkscape:collect="always" />
    <linearGradient
       gradientTransform="matrix(0.27768851,0,0,0.27768851,0.33757407,15.409173)"
       gradientUnits="userSpaceOnUse"
       y2="873.17474"
       x2="570.42816"
       y1="943.74744"
       x1="448.19272"
       id="linearGradient3978"
       xlink:href="#linearGradient3962"
       inkscape:collect="always" />
    <linearGradient
       gradientTransform="matrix(0.27768851,0,0,0.27768851,0.33757407,15.409173)"
       gradientUnits="userSpaceOnUse"
       y2="868.74054"
       x2="474.98361"
       y1="948.98987"
       x1="335.9877"
       id="linearGradient3980"
       xlink:href="#linearGradient3962"
       inkscape:collect="always" />
    <linearGradient
       gradientTransform="matrix(0.27768851,0,0,0.27768851,0.33757407,15.409173)"
       gradientUnits="userSpaceOnUse"
       y2="870.11414"
       x2="368.43353"
       y1="949.56262"
       x1="230.82472"
       id="linearGradient3982"
       xlink:href="#linearGradient3962"
       inkscape:collect="always" />
    <linearGradient
       gradientTransform="matrix(0.27768851,0,0,0.27768851,0.33757407,15.409173)"
       gradientUnits="userSpaceOnUse"
       y2="726.61621"
       x2="926.61707"
       y1="794.79364"
       x1="808.53033"
       id="linearGradient3984"
       xlink:href="#linearGradient3962"
       inkscape:collect="always" />
    <linearGradient
       gradientTransform="matrix(0.27768851,0,0,0.27768851,0.33757407,15.409173)"
       gradientUnits="userSpaceOnUse"
       y2="724.5329"
       x2="820.73419"
       y1="801.01874"
       x1="688.25684"
       id="linearGradient3986"
       xlink:href="#linearGradient3962"
       inkscape:collect="always" />
    <linearGradient
       gradientTransform="matrix(0.27768851,0,0,0.27768851,0.33757407,15.409173)"
       gradientUnits="userSpaceOnUse"
       y2="720.22577"
       x2="733.47968"
       y1="800.60803"
       x1="594.25348"
       id="linearGradient3988"
       xlink:href="#linearGradient3962"
       inkscape:collect="always" />
    <linearGradient
       gradientTransform="matrix(0.27768851,0,0,0.27768851,0.33757407,15.409173)"
       gradientUnits="userSpaceOnUse"
       y2="720.92712"
       x2="632.31537"
       y1="800.95178"
       x1="493.70859"
       id="linearGradient3990"
       xlink:href="#linearGradient3962"
       inkscape:collect="always" />
    <linearGradient
       gradientTransform="matrix(0.27768851,0,0,0.27768851,0.33757407,15.409173)"
       gradientUnits="userSpaceOnUse"
       y2="725.61206"
       x2="535.07587"
       y1="795.1839"
       x1="414.57391"
       id="linearGradient3992"
       xlink:href="#linearGradient3962"
       inkscape:collect="always" />
    <linearGradient
       gradientTransform="matrix(0.27768851,0,0,0.27768851,0.33757407,15.409173)"
       gradientUnits="userSpaceOnUse"
       y2="564.85974"
       x2="694.34747"
       y1="649.67535"
       x1="547.4425"
       id="linearGradient3994"
       xlink:href="#linearGradient3962"
       inkscape:collect="always" />
    <linearGradient
       gradientTransform="matrix(0.27768851,0,0,0.27768851,0.33757407,15.409173)"
       gradientUnits="userSpaceOnUse"
       y2="566.34924"
       x2="593.07745"
       y1="650.02258"
       x1="448.15094"
       id="linearGradient3996"
       xlink:href="#linearGradient3962"
       inkscape:collect="always" />
    <linearGradient
       gradientTransform="matrix(0.27768851,0,0,0.27768851,0.33757407,15.409173)"
       gradientUnits="userSpaceOnUse"
       y2="567.61792"
       x2="494.23373"
       y1="648.97882"
       x1="353.31256"
       id="linearGradient3998"
       xlink:href="#linearGradient3962"
       inkscape:collect="always" />
    <linearGradient
       gradientTransform="matrix(0.27768851,0,0,0.27768851,0.33757407,15.409173)"
       gradientUnits="userSpaceOnUse"
       y2="568.88531"
       x2="381.35507"
       y1="649.24768"
       x1="242.16339"
       id="linearGradient4000"
       xlink:href="#linearGradient3962"
       inkscape:collect="always" />
    <linearGradient
       gradientTransform="matrix(0.27768851,0,0,0.27768851,0.33757407,15.409173)"
       gradientUnits="userSpaceOnUse"
       y2="567.30927"
       x2="281.53812"
       y1="650.828"
       x1="136.87946"
       id="linearGradient4002"
       xlink:href="#linearGradient3962"
       inkscape:collect="always" />
    <linearGradient
       gradientTransform="matrix(0.27768851,0,0,0.27768851,0.33757407,15.409173)"
       gradientUnits="userSpaceOnUse"
       y2="843.33502"
       x2="213.60863"
       y1="843.33502"
       x1="166.2234"
       id="linearGradient4018"
       xlink:href="#linearGradient3962"
       inkscape:collect="always" />
    <linearGradient
       gradientTransform="matrix(0.27768851,0,0,0.27768851,0.33757407,15.409173)"
       gradientUnits="userSpaceOnUse"
       y2="687.41071"
       x2="548.39594"
       y1="816.60852"
       x1="324.61877"
       id="linearGradient4034"
       xlink:href="#linearGradient3962"
       inkscape:collect="always" />
  </defs>
  <sodipodi:namedview
     id="base"
     pagecolor="#ffffff"
     bordercolor="#666666"
     borderopacity="1.0"
     inkscape:pageopacity="0.0"
     inkscape:pageshadow="2"
     inkscape:zoom="0.7"
     inkscape:cx="512.28338"
     inkscape:cy="223.04066"
     inkscape:document-units="px"
     inkscape:current-layer="layer1"
     showgrid="false"
     units="px"
     inkscape:window-width="1360"
     inkscape:window-height="706"
     inkscape:window-x="-8"
     inkscape:window-y="-8"
     inkscape:window-maximized="1" />
  <metadata
     id="metadata1467">
    <rdf:RDF>
      <cc:Work
         rdf:about="">
        <dc:format>image/svg+xml</dc:format>
        <dc:type
           rdf:resource="http://purl.org/dc/dcmitype/StillImage" />
        <dc:title></dc:title>
      </cc:Work>
    </rdf:RDF>
  </metadata>
  <g
     inkscape:label="Layer 1"
     inkscape:groupmode="layer"
     id="layer1"
     transform="translate(0,-165.40312)">
    <path
       inkscape:connector-curvature="0"
       id="path4010"
       d="m 122.05192,205.26134 -34.138331,0.2343 h -0.529344 l -0.364463,0.3905 -7.523623,7.98355 -1.249598,1.32769 1.353727,0.55538 c 0.02429,0.0646 0.04607,0.10574 0.06942,0.20827 0.07767,0.34093 0.102542,0.82567 0,1.22356 -0.102539,0.39789 -0.277733,0.70312 -0.676865,0.96323 -0.399132,0.26012 -1.099738,0.49314 -2.334318,0.42522 h -0.04339 -0.04339 c -1.231233,0.0183 -3.137865,-0.5337 -5.284758,-1.36241 -2.146892,-0.82872 -4.55644,-1.90455 -7.028992,-2.78556 -2.472547,-0.88102 -5.012828,-1.58539 -7.488909,-1.60539 -2.476082,-0.02 -4.933067,0.71567 -6.864115,2.64671 l -3.02854,3.01987 4.174006,-0.91984 c 3.447526,-0.75984 6.811521,0.71724 7.966191,2.1434 0.577332,0.71309 0.62315,1.12255 0.364464,1.57068 -0.251592,0.43584 -1.174687,1.1436 -3.228128,1.55332 -2.392397,-0.18217 -4.702739,-1.11507 -7.176514,-2.05663 -2.524728,-0.96096 -5.239893,-1.92032 -8.330655,-1.74423 -3.569805,0.20826 -6.599793,2.46537 -9.762487,4.47773 -3.162694,2.01234 -6.406753,3.83859 -10.187697,3.85292 l -4.46905,0.0174 3.826895,2.29961 c 2.507522,1.50722 5.362522,1.57966 8.105033,1.1281 2.742509,-0.45154 5.45964,-1.41286 7.93148,-2.15208 2.471841,-0.73922 4.689438,-1.21343 6.230636,-0.95456 1.483527,0.24919 2.477979,0.96148 3.236804,3.24549 -0.156337,1.33218 -0.726249,2.30993 -1.97853,3.16739 -1.328468,0.90962 -3.468624,1.6132 -6.464935,1.93514 l -4.425659,0.47728 4.026482,1.89175 c 3.475233,1.63783 7.372207,1.15802 11.081509,0.26033 3.649523,-0.88323 7.208261,-2.18305 10.09224,-2.66407 1.306783,0.11243 2.250041,0.42803 2.820274,0.79835 0.593457,0.3854 0.825275,0.77988 0.911166,1.19753 0.171781,0.83531 -0.383577,2.15399 -2.108697,3.18474 l -2.95044,1.76159 3.401684,0.53802 c 3.407122,0.54093 6.568342,-0.37328 9.476118,-1.38844 2.833981,-0.9894 5.459148,-2.05616 7.853381,-2.27358 2.074548,0.57107 3.255031,1.2997 3.714086,1.83101 0.475745,0.55064 0.444828,0.7527 0.173553,1.26695 -0.542549,1.02852 -3.154177,2.59316 -6.195925,2.82896 l -4.017806,0.3124 3.488462,2.02192 c 3.38912,1.9567 6.857262,1.53916 9.59761,1.66613 h 0.02603 0.02604 c 3.788677,0.0141 6.57793,-1.23741 8.938096,-2.36903 2.360168,-1.13163 4.258863,-2.09015 6.647169,-2.02192 1.029013,0.0736 1.720013,0.2179 2.047953,0.53802 0.33348,0.32551 0.71316,1.13859 0.45125,3.38433 l -0.0955,0.82438 0.72026,0.40786 10.41332,5.90088 0.94587,0.53802 0.65951,-0.86777 22.44938,-29.38292 0.56406,-0.74629 -0.5467,-0.75496 -14.23154,-19.4382 -0.38182,-0.51199 z m -0.6248,2.50788 13.30302,18.17124 -21.21714,27.77753 -8.79925,-4.98104 c 0.12537,-2.12561 -0.2505,-3.65827 -1.23224,-4.61657 -1.11282,-1.08624 -2.54349,-1.17264 -3.670704,-1.2496 h -0.02601 -0.02603 c -3.096488,-0.0885 -5.481085,1.15242 -7.801311,2.2649 -2.306966,1.10611 -4.57721,2.12633 -7.792638,2.12605 -0.01794,-7.9e-4 -0.03413,7.9e-4 -0.05207,0 -1.47846,-0.066 -2.908893,-0.0341 -4.286819,-0.1562 1.58536,-0.70643 2.872732,-1.69587 3.566565,-3.01118 0.646115,-1.22485 0.526965,-2.87879 -0.494633,-4.0612 -1.021601,-1.1824 -2.698721,-2.03102 -5.189305,-2.68143 l -0.199588,-0.0521 -0.199589,0.0174 c -3.029,0.2188 -5.885553,1.4489 -8.695121,2.42978 -1.825569,0.63734 -3.611112,1.13347 -5.388893,1.31034 0.738262,-1.09582 1.095018,-2.31764 0.841743,-3.54921 -0.227015,-1.10388 -0.939358,-2.10811 -1.995887,-2.79424 -1.056526,-0.68613 -2.43636,-1.0942 -4.139292,-1.21488 l -0.147524,-0.009 -0.138846,0.0174 c -3.312159,0.52477 -6.933474,1.89372 -10.439352,2.74218 -1.163428,0.28156 -2.284621,0.46553 -3.384327,0.59009 0.409215,-0.20677 0.813599,-0.41445 1.171498,-0.65951 1.845368,-1.26356 2.945254,-3.14235 3.106642,-5.27608 l 0.01736,-0.2343 -0.06942,-0.22563 c -0.952352,-3.1025 -2.978939,-4.81497 -5.310791,-5.20665 -2.331852,-0.39169 -4.814446,0.26048 -7.367423,1.02397 -2.552981,0.76349 -5.184979,1.68189 -7.61908,2.08266 -0.196839,0.0324 -0.379608,0.0352 -0.572733,0.0608 1.819141,-0.78835 3.487714,-1.79675 5.041781,-2.78556 3.23132,-2.05602 6.03807,-3.93931 8.573635,-4.08723 2.488777,-0.14179 4.813356,0.63696 7.289324,1.57935 2.475968,0.9424 5.080484,2.05158 8.061645,2.23887 l 0.156199,0.009 0.147524,-0.026 c 2.555976,-0.47338 4.271865,-1.36394 5.102527,-2.80292 0.830656,-1.43897 0.398552,-3.17852 -0.59009,-4.39962 -1.00367,-1.23967 -2.563236,-2.23211 -4.416983,-2.79424 0.07165,-8e-4 0.135697,-0.0179 0.208267,-0.0174 2.005576,0.0162 4.314023,0.62034 6.664523,1.45786 2.3505,0.83753 4.734803,1.89741 6.968247,2.75953 2.200349,0.84935 4.237307,1.5344 6.135182,1.52729 0.02855,-1e-4 0.05829,0.009 0.08678,0.009 v -0.009 c 1.561478,0.0724 2.812529,-0.21423 3.748794,-0.82439 0.954484,-0.62202 1.508927,-1.55038 1.735555,-2.42977 0.226632,-0.87939 0.174162,-1.71543 0.01736,-2.40374 -0.04072,-0.17875 -0.116157,-0.32431 -0.173556,-0.48596 l 6.534356,-6.92485 32.958158,-0.22563 z m -41.870218,7.8447 c 0.0033,0.006 0.01273,0.0417 0.01736,0.0521 -0.0434,-0.0533 -0.02872,-0.074 -0.01736,-0.0521 z"
       style="color:#000000;font-style:normal;font-variant:normal;font-weight:normal;font-stretch:normal;font-size:medium;line-height:normal;font-family:Sans;-inkscape-font-specification:Sans;text-indent:0;text-align:start;text-decoration:none;text-decoration-line:none;letter-spacing:normal;word-spacing:normal;text-transform:none;writing-mode:lr-tb;direction:ltr;baseline-shift:baseline;text-anchor:start;display:inline;overflow:visible;visibility:visible;fill:#000000;fill-opacity:1;fill-rule:nonzero;stroke:none;stroke-width:2.3812499;marker:none;enable-background:accumulate" />
    <path
       style="fill:#ed560f;fill-opacity:1;stroke:none;stroke-width:0.26458332"
       d="m 20.701399,228.61255 c 8.352017,-0.0317 13.911344,-7.97448 20.016715,-8.33066 5.579539,-0.31787 10.078059,3.47733 15.504277,3.81822 9.468215,-1.75357 2.471541,-9.28879 -5.438069,-7.75214 7.590168,-4.82391 19.494828,3.56491 25.801889,3.47111 5.677707,0.31237 4.492871,-4.81492 3.818218,-5.09096 l 7.520733,-7.98355 34.132548,-0.2314 14.23154,19.4382 -22.44649,29.3887 -10.41332,-5.90089 c 0.56547,-4.84852 -1.51717,-5.17316 -3.702517,-5.32236 -5.484789,-0.15669 -8.586394,4.42295 -15.619979,4.39674 -2.885736,-0.13371 -5.794407,-0.33624 -9.024876,-1.50415 6.708325,-0.52004 11.733357,-5.98653 2.314069,-8.44636 -5.472737,0.39532 -11.102305,4.67693 -17.239826,3.70251 4.067548,-2.43034 3.878368,-7.08188 -2.314075,-7.52073 -6.220494,0.98554 -14.206802,5.33163 -20.595227,2.54548 6.239488,-0.6704 9.331436,-2.88373 9.603393,-6.4794 -3.442589,-11.21496 -17.492152,3.00509 -26.149003,-2.19836 z"
       id="path4041"
       inkscape:connector-curvature="0"
       sodipodi:nodetypes="cccccccccccccccccccc" />
    <path
       sodipodi:nodetypes="cccccccccccccc"
       inkscape:connector-curvature="0"
       id="path4026"
       d="m 66.082308,227.64325 c 3.246721,-2.10814 7.563657,1.21969 11.767121,1.61932 2.462252,-0.32989 1.891099,-2.09665 1.727282,-3.67047 5.704658,3.88691 14.844197,5.16464 15.761465,-0.64774 -0.262361,-3.49412 -3.045233,-3.53614 -5.289807,-4.53411 7.568557,-2.4411 11.001931,3.20906 17.272841,4.21025 5.23943,-0.10796 4.34773,-3.9078 3.77843,-6.15345 4.71957,3.2203 5.21496,9.00805 9.17619,11.44326 l 3.77843,6.69322 -6.69322,0.21591 c -11.95798,-2.16416 -10.64084,5.56463 -20.511493,3.23828 3.167273,-1.29039 5.788543,-2.71842 5.235593,-6.04512 -2.274495,-6.81878 -10.268521,-0.33609 -15.491337,-0.21591 -5.760284,0.68059 -12.808263,-6.06337 -20.511495,-6.15344 z"
       style="fill:#000000;fill-opacity:1;stroke:#000000;stroke-width:2.49919653;stroke-linecap:butt;stroke-linejoin:miter;stroke-miterlimit:4;stroke-dasharray:none;stroke-opacity:1" />
    <path
       style="fill:url(#linearGradient4034);fill-opacity:1;stroke:none;stroke-width:0.26458332"
       d="m 66.082308,227.64325 c 3.246721,-2.10814 7.563657,1.21969 11.767121,1.61932 2.462252,-0.32989 1.891099,-2.09665 1.727282,-3.67047 5.704658,3.88691 14.844197,5.16464 15.761465,-0.64774 -0.262361,-3.49412 -3.045233,-3.53614 -5.289807,-4.53411 7.568557,-2.4411 11.001931,3.20906 17.272841,4.21025 5.23943,-0.10796 4.34773,-3.9078 3.77843,-6.15345 4.71957,3.2203 5.21496,9.00805 9.17619,11.44326 l 3.77843,6.69322 -6.69322,0.21591 c -11.95798,-2.16416 -10.64084,5.56463 -20.511493,3.23828 3.167273,-1.29039 5.788543,-2.71842 5.235593,-6.04512 -2.274495,-6.81878 -10.268521,-0.33609 -15.491337,-0.21591 -5.760284,0.68059 -12.808263,-6.06337 -20.511495,-6.15344 z"
       id="path4036"
       inkscape:connector-curvature="0"
       sodipodi:nodetypes="cccccccccccccc" />
    <g
       id="layer3"
       inkscape:label="Warstwa#1"
       transform="matrix(0.26458333,0,0,0.26458333,0.32164265,28.698527)">
      <path
         sodipodi:nodetypes="cccccccccccccccc"
         inkscape:connector-curvature="0"
         id="path4103"
         d="m 793.43321,652.82727 c 6.02726,1.43705 9.01104,-0.57519 8.5705,-6.46831 l 0.32341,-15.36222 20.05179,-13.74517 c 5.09,-4.58859 0.96518,-11.31955 -3.39589,-11.31955 h -17.30271 l -8.2471,-20.37516 c -2.21001,-4.48395 -5.55197,-3.90483 -7.60028,0 l -12.4515,20.37459 h -23.1242 c -7.48917,1.46014 -3.21163,7.77502 0.16173,10.835 l 10.83443,9.37904 -11.15784,17.46443 c -1.79122,3.99677 -0.17477,10.82601 9.05563,8.89396 l 18.75812,-10.99612 z"
         style="fill:#000000;stroke:none" />
      <path
         style="fill:#000000;stroke:none"
         d="m 879.43339,652.82727 c 6.02727,1.43705 9.01105,-0.57519 8.57051,-6.46831 l 0.32342,-15.36222 20.05177,-13.74517 c 5.09001,-4.58859 0.9652,-11.31955 -3.39588,-11.31955 H 887.6805 l -8.24711,-20.37516 c -2.21,-4.48395 -5.55196,-3.90483 -7.60027,0 l -12.45149,20.37459 h -23.12421 c -7.48918,1.46014 -3.21164,7.77502 0.16173,10.835 l 10.83443,9.37904 -11.15784,17.46443 c -1.79123,3.99677 -0.17476,10.82601 9.05563,8.89396 l 18.75811,-10.99612 z"
         id="path4107"
         inkscape:connector-curvature="0"
         sodipodi:nodetypes="cccccccccccccccc" />
      <path
         sodipodi:nodetypes="cccccccccccccccc"
         inkscape:connector-curvature="0"
         id="path4111"
         d="m 966.03499,652.82727 c 6.02726,1.43705 9.01105,-0.57519 8.5705,-6.46831 l 0.32342,-15.36222 20.05177,-13.74517 c 5.09002,-4.58859 0.9652,-11.31955 -3.39588,-11.31955 h -17.30271 l -8.2471,-20.37516 c -2.21001,-4.48395 -5.55197,-3.90483 -7.60028,0 l -12.45149,20.37459 h -23.1242 c -7.48918,1.46014 -3.21165,7.77502 0.16172,10.835 l 10.83443,9.37904 -11.15784,17.46443 c -1.79123,3.99677 -0.17476,10.82601 9.05563,8.89396 l 18.75811,-10.99612 z"
         style="fill:#000000;stroke:none" />
      <path
         style="fill:#000000;stroke:none"
         d="m 46.111398,930.69559 c 6.027354,1.43705 9.011067,-0.57518 8.570578,-6.4683 l 0.323361,-15.36222 20.051822,-13.74517 c 5.090018,-4.58859 0.96515,-11.31955 -3.395863,-11.31955 H 54.358511 l -8.247113,-20.37517 c -2.209999,-4.48394 -5.551927,-3.90483 -7.600235,0 L 26.059669,883.79977 H 2.9354691 c -7.4891834,1.46014 -3.21163974,7.77502 0.1617222,10.83501 l 10.8344277,9.37904 -11.1578408,17.46444 c -1.79122481,3.99675 -0.1747575,10.82599 9.0556298,8.89394 l 18.758119,-10.99612 z"
         id="path4115"
         inkscape:connector-curvature="0"
         sodipodi:nodetypes="cccccccccccccccc" />
      <path
         sodipodi:nodetypes="cccccccccccccccc"
         inkscape:connector-curvature="0"
         id="path4117"
         d="m 129.09882,930.69559 c 6.02725,1.43705 9.01097,-0.57518 8.57048,-6.4683 l 0.32336,-15.36222 20.05182,-13.74517 c 5.09002,-4.58859 0.96515,-11.31955 -3.39587,-11.31955 h -17.30278 l -8.24701,-20.37517 c -2.2101,-4.48394 -5.55202,-3.90483 -7.60028,0 L 109.047,883.79977 H 85.922775 c -7.489141,1.46014 -3.211566,7.77502 0.161733,10.83501 l 10.834417,9.37904 -11.157778,17.46444 c -1.791236,3.99675 -0.174747,10.82599 9.055567,8.89394 l 18.758176,-10.99612 z"
         style="fill:#000000;stroke:none" />
      <path
         style="fill:#000000;stroke:none"
         d="m 214.49524,930.69559 c 6.02724,1.43705 9.01106,-0.57518 8.57047,-6.4683 l 0.32346,-15.36222 20.05173,-13.74517 c 5.09001,-4.58859 0.96524,-11.31955 -3.39587,-11.31955 h -17.30268 l -8.24711,-20.37517 c -2.21,-4.48394 -5.55203,-3.90483 -7.60029,0 l -12.45154,20.37459 H 171.3193 c -7.48925,1.46014 -3.21167,7.77502 0.16163,10.83501 l 10.83452,9.37904 -11.15789,17.46444 c -1.79123,3.99675 -0.17475,10.82599 9.05568,8.89394 l 18.75807,-10.99612 z"
         id="path4119"
         inkscape:connector-curvature="0"
         sodipodi:nodetypes="cccccccccccccccc" />
    </g>
    <path
       sodipodi:type="star"
       style="fill:#000000;fill-opacity:1;stroke:none"
       id="path3954"
       sodipodi:sides="5"
       sodipodi:cx="149.05743"
       sodipodi:cy="888.57861"
       sodipodi:r1="25.645163"
       sodipodi:r2="9.6799641"
       sodipodi:arg1="0.9244941"
       sodipodi:arg2="1.5435626"
       inkscape:flatsided="false"
       inkscape:rounded="0"
       inkscape:randomized="0"
       d="m 164.50194,909.05156 -15.18092,-10.79657 -14.9619,11.33871 5.57699,-17.77423 -15.40724,-10.72577 18.62769,-0.1885 5.4397,-17.9676 5.93556,17.65773 18.76916,-0.37883 -14.95931,11.10159 z"
       inkscape:transform-center-x="-2.8720583"
       inkscape:transform-center-y="-3.2587419"
       transform="matrix(0.37169537,0.004981,-0.10259111,0.35645031,288.3406,-124.68704)" />
    <path
       transform="matrix(0.37169537,0.004981,-0.10259111,0.35645031,265.32503,-124.68704)"
       inkscape:transform-center-y="-3.2587419"
       inkscape:transform-center-x="-2.872109"
       d="m 164.50194,909.05156 -15.18092,-10.79657 -14.9619,11.33871 5.57699,-17.77423 -15.40724,-10.72577 18.62769,-0.1885 5.4397,-17.9676 5.93556,17.65773 18.76916,-0.37883 -14.95931,11.10159 z"
       inkscape:randomized="0"
       inkscape:rounded="0"
       inkscape:flatsided="false"
       sodipodi:arg2="1.5435626"
       sodipodi:arg1="0.9244941"
       sodipodi:r2="9.6799641"
       sodipodi:r1="25.645163"
       sodipodi:cy="888.57861"
       sodipodi:cx="149.05743"
       sodipodi:sides="5"
       id="path3956"
       style="fill:#000000;fill-opacity:1;stroke:none"
       sodipodi:type="star" />
    <path
       sodipodi:type="star"
       style="fill:#000000;fill-opacity:1;stroke:none"
       id="path3958"
       sodipodi:sides="5"
       sodipodi:cx="149.05743"
       sodipodi:cy="888.57861"
       sodipodi:r1="25.645163"
       sodipodi:r2="9.6799641"
       sodipodi:arg1="0.9244941"
       sodipodi:arg2="1.5435626"
       inkscape:flatsided="false"
       inkscape:rounded="0"
       inkscape:randomized="0"
       d="m 164.50194,909.05156 -15.18092,-10.79657 -14.9619,11.33871 5.57699,-17.77423 -15.40724,-10.72577 18.62769,-0.1885 5.4397,-17.9676 5.93556,17.65773 18.76916,-0.37883 -14.95931,11.10159 z"
       inkscape:transform-center-x="-2.8721014"
       inkscape:transform-center-y="-3.2587419"
       transform="matrix(0.37169537,0.004981,-0.10259111,0.35645031,242.44201,-124.68704)" />
    <path
       id="path2865"
       sodipodi:nodetypes="ccc"
       inkscape:connector-curvature="0"
       d="m 18.256764,234.36641 c -4.155413,-1.18269 -10.1405044,-6.45505 -14.3541154,-2.34545 3.807234,-0.70943 8.5047264,2.99856 14.3541154,2.34545 z"
       style="fill:#ed560f;fill-opacity:1;stroke:#000000;stroke-width:0.83306551;stroke-linecap:butt;stroke-linejoin:miter;stroke-miterlimit:4;stroke-dasharray:none;stroke-opacity:1" />
    <path
       sodipodi:nodetypes="ccc"
       inkscape:connector-curvature="0"
       id="path4006"
       d="m 46.495905,248.90816 c 6.899201,0.60248 11.473172,4.66533 16.136654,0 -6.001744,1.57127 -11.679692,-2.52191 -16.136654,0 z"
       style="fill:url(#linearGradient4018);fill-opacity:1;stroke:#000000;stroke-width:0.83306551;stroke-linecap:butt;stroke-linejoin:miter;stroke-miterlimit:4;stroke-dasharray:none;stroke-opacity:1" />
    <path
       style="fill:#ed560f;fill-opacity:1;stroke:#000000;stroke-width:0.41653275;stroke-linecap:butt;stroke-linejoin:miter;stroke-miterlimit:4;stroke-dasharray:none;stroke-opacity:1"
       d="m 35.097856,212.49142 c 2.022962,0.30081 3.364125,2.32934 4.731531,0 -1.759807,0.78452 -3.424674,-1.25916 -4.731531,0 z"
       id="path4008"
       inkscape:connector-curvature="0"
       sodipodi:nodetypes="ccc" />
    <path
       style="fill:#000000;stroke:none;stroke-width:0.26458332"
       d="m 67.90946,296.99999 h 105.4109 l 15.34463,-40.69662 h 20.51509 l 5.00369,-13.84353 h 5.33726 l 4.33652,-11.67526 h 3.00221 l -6.01558,13.74339 c -1.45135,3.97874 -2.56285,11.44181 5.682,11.44181 h 17.17929 l 7.50553,-16.34536 c 1.22566,-3.15401 1.38681,-6.45553 -2.00145,-8.83984 -1.3662,-3.21812 -0.55627,-4.77282 2.00145,-6.50478 h 5.83766 c 0,0 3.75836,-7.96629 5.50405,-12.00884 0.7136,-1.65252 2.03062,-5.00368 2.03062,-5.00368 H 183.6613 l 11.67526,-29.18815 c 1.67334,-7.10654 -1.45383,-12.67599 -6.50478,-12.67599 H 51.230521 l -14.84426,37.19403 c -1.201423,3.48536 -1.006914,11.34168 7.171949,11.34168 h 75.05523 l -5.17047,10.00737 h 8.33946 l -9.50699,21.51582 c -0.11042,0.94572 -0.71701,1.51933 0.33358,3.33581 H 76.916085 l -14.510673,35.69294 c -2.173528,4.27474 -3.462369,12.5092 5.504048,12.5092 z"
       id="path4059"
       inkscape:connector-curvature="0"
       sodipodi:nodetypes="cccccccccccccccsccccccccccccccc" />
    <path
       sodipodi:nodetypes="cccccccccccccc"
       inkscape:connector-curvature="0"
       id="path3122"
       d="M 61.301375,204.39916 72.385699,177.2039 h -5.881434 l -3.568102,9.15101 c -0.748659,1.61178 -1.771758,2.54746 -3.310329,2.57941 -2.317477,-0.49017 -1.850191,-2.03128 -1.288875,-3.7394 l 4.382177,-10.311 c 0.627542,-1.08718 1.513734,-1.81225 2.706635,-2.10793 h 8.810085 l 2.060541,-5.23866 H 52.923682 l -13.275413,32.99521 c -0.797885,2.49076 0.168458,3.51134 1.933313,3.86649 z"
       style="fill:url(#linearGradient4002);fill-opacity:1;stroke:none;stroke-width:0.26458332" />
    <path
       sodipodi:nodetypes="ccccccccccccccccsssss"
       inkscape:connector-curvature="0"
       id="path3124"
       d="m 80.927991,167.53727 -13.320373,32.6389 c -0.718225,1.95935 -0.355336,3.73004 1.570677,4.22286 h 9.849263 l 4.364916,-11.38202 0.694222,8.27859 c 0.144229,1.95057 1.292934,2.77629 2.889697,3.10343 h 5.70997 l 6.49097,-15.74693 H 93.35455 c -1.581653,0.0625 -2.286191,-0.5728 -2.238865,-1.7963 0.146077,-1.64492 1.708804,-2.547 2.690109,-2.68143 3.334414,-0.8571 5.498674,-2.79505 6.603776,-5.70997 l 3.13268,-7.72321 c 0.78524,-1.85754 0.24333,-2.71821 -1.45787,-3.20392 z m 13.042681,4.93079 c 1.302898,0 1.749041,1.71009 0.997942,3.81822 -0.751099,2.10813 -2.419864,3.81822 -3.722759,3.81822 -1.302898,0 -1.749047,-1.71009 -0.997945,-3.81822 0.751099,-2.10813 2.419863,-3.81822 3.722762,-3.81822 z"
       style="fill:url(#linearGradient4000);fill-opacity:1;stroke:none;stroke-width:0.26458332" />
    <path
       inkscape:connector-curvature="0"
       id="path3129"
       d="m 112.16795,167.53909 -13.519961,33.0189 c -0.789403,2.72701 0.463359,3.30562 1.752911,3.84425 h 9.59761 l 6.29138,-15.49849 c 0.63466,-1.15757 1.48151,-1.92667 2.78556,-1.85704 1.60359,0.63994 2.06322,1.92333 1.0934,4.01781 l -5.30212,13.33772 h 5.75336 l 13.6241,-34.06891 c 0.42748,-1.47402 0.40907,-2.74717 -1.44919,-2.79424 z m 12.70425,4.85087 c 1.3029,0 1.74904,1.71009 0.99794,3.81822 -0.7511,2.10813 -2.41119,3.81822 -3.71408,3.81822 -1.3029,0 -1.75773,-1.71009 -1.00662,-3.81822 0.75109,-2.10813 2.41986,-3.81822 3.72276,-3.81822 z"
       style="fill:url(#linearGradient3998);fill-opacity:1;stroke:none;stroke-width:0.26458332" />
    <path
       sodipodi:nodetypes="ccccccccccc"
       inkscape:connector-curvature="0"
       id="path3150"
       d="m 124.97336,204.39903 15.05933,-36.86176 h 20.2112 c 1.54993,0.47017 2.06035,1.82932 1.321,4.23657 l -13.07784,32.62519 h -5.87842 l 11.1624,-27.73751 c 1.18923,-2.24071 0.68092,-3.48287 -1.12285,-3.96298 -1.20888,0.12024 -2.31245,0.76703 -3.17039,2.64198 l -11.49264,29.05851 z"
       style="fill:url(#linearGradient3996);fill-opacity:1;stroke:none;stroke-width:0.26458332" />
    <path
       inkscape:connector-curvature="0"
       id="path3152"
       d="m 167.90524,167.53909 -15.05592,36.86315 h 19.02166 c 3.33007,-0.39816 5.04302,-2.25738 6.33477,-4.49508 l 10.36993,-25.88578 c 1.30613,-4.09013 0.12765,-6.08948 -2.9678,-6.48229 z m 10.20505,5.48435 h 2.84631 c 1.23706,0.16668 1.71084,1.01525 1.18886,2.75085 l -4.66864,10.98606 c -0.51624,0.94954 -1.20308,1.73147 -2.53391,1.90043 h -2.84631 z"
       style="fill:url(#linearGradient3994);fill-opacity:1;stroke:none;stroke-width:0.26458332" />
    <path
       sodipodi:nodetypes="cccccccccccccccc"
       inkscape:connector-curvature="0"
       id="path3157"
       d="m 123.06323,209.22226 -2.30293,5.69436 h 4.53097 c 1.68317,0.24099 2.44468,1.19416 1.39674,3.54555 l -10.09945,25.03372 c -0.4805,1.56536 -0.27761,2.78901 1.71906,3.11578 h 13.10778 l 5.15716,-12.67802 c 0.75227,-1.6117 0.78919,-2.86573 -1.18184,-3.11578 h -2.3637 c -1.82312,-0.21339 -1.4674,-2.68277 -0.67286,-3.97531 l 4.2184,-10.31432 c 0.46719,-1.10781 1.25757,-1.73083 2.47114,-1.71906 h 5.04972 l 2.3637,-5.58692 z"
       style="fill:url(#linearGradient3992);fill-opacity:1;stroke:none;stroke-width:0.26458332" />
    <path
       sodipodi:nodetypes="cccccccccccccccc"
       inkscape:connector-curvature="0"
       id="path3159"
       d="m 151.01781,209.2222 -13.13895,32.56921 c -1.17506,2.9437 -0.23203,4.29884 1.82275,4.82016 h 8.96183 l 7.36692,-18.18695 c 0.63465,-1.93232 2.03243,-2.18449 2.96196,-2.12677 2.14584,0.22301 2.09825,1.68258 0.98732,4.4052 l -6.15176,15.90852 h 5.62013 l 14.9617,-37.38937 h -5.92392 l -3.56955,8.64569 c -0.73709,1.12884 -1.30766,1.47002 -2.73411,1.36729 -2.54162,-0.35472 -1.69429,-2.14855 -1.21517,-3.72167 l 2.50628,-6.208 z"
       style="fill:url(#linearGradient3990);fill-opacity:1;stroke:none;stroke-width:0.26458332" />
    <path
       sodipodi:nodetypes="cccccccccccccccc"
       inkscape:connector-curvature="0"
       id="path3161"
       d="m 179.21884,209.2222 -13.74493,33.24259 c -0.7078,2.11483 -0.23997,3.54389 1.64414,4.14678 h 19.99261 l 5.98463,-15.78722 h -10.91702 c -1.75468,-0.1008 -2.12842,-1.06469 -2.17025,-2.23602 0.39506,-1.63156 1.6448,-2.17537 3.22249,-2.30178 h 12.03503 l 2.69637,-7.09263 h -12.03503 c -0.83951,-0.70197 -1.04689,-0.94297 -0.98647,-2.04873 0.3069,-1.47314 1.24424,-2.18976 2.6306,-2.36754 h 12.03503 l 2.36755,-5.55545 z"
       style="fill:url(#linearGradient3988);fill-opacity:1;stroke:none;stroke-width:0.26458332" />
    <path
       sodipodi:nodetypes="ccccccccccccccc"
       inkscape:connector-curvature="0"
       id="path3163"
       d="m 191.65521,246.61157 h 12.8439 l 5.36338,-13.49634 h 4.79882 l 3.03455,-7.19823 h -5.15167 l 3.45797,-8.4685 c 1.01413,-2.61121 2.41257,-2.81409 3.24626,-2.75227 1.53577,0.36867 2.07073,1.41826 1.27028,3.45797 l -1.34085,3.52855 h 5.71624 l 3.31683,-7.83337 c 0.74976,-2.84742 0.0429,-4.34519 -1.97598,-4.62718 h -19.6187 z"
       style="fill:url(#linearGradient3986);fill-opacity:1;stroke:none;stroke-width:0.26458332" />
    <path
       style="fill:url(#linearGradient3984);fill-opacity:1;stroke:none;stroke-width:0.26458332"
       d="m 232.05593,209.22226 -2.30293,5.69436 h 4.53097 c 1.68317,0.24099 2.44468,1.19416 1.39674,3.54555 l -10.09944,25.03372 c -0.48051,1.56536 -0.27762,2.78901 1.71905,3.11578 h 13.10778 l 5.15717,-12.67802 c 0.75226,-1.6117 0.78918,-2.86573 -1.18186,-3.11578 h -2.36369 c -1.82312,-0.21339 -1.4674,-2.68277 -0.67286,-3.97531 l 4.21841,-10.31432 c 0.46718,-1.10781 1.25756,-1.73083 2.47113,-1.71906 h 5.04972 l 2.3637,-5.58692 z"
       id="path3165"
       inkscape:connector-curvature="0"
       sodipodi:nodetypes="cccccccccccccccc" />
    <path
       inkscape:connector-curvature="0"
       style="fill:url(#linearGradient3982);fill-opacity:1;stroke:none;stroke-width:0.26458332"
       d="m 78.68896,250.86457 -13.519957,33.0189 c -0.789405,2.72701 0.46336,3.30561 1.752907,3.84425 h 9.59761 l 6.291381,-15.49849 c 0.634662,-1.15758 1.481513,-1.92667 2.785563,-1.85704 1.603594,0.63994 2.063223,1.92332 1.093398,4.0178 l -5.302115,13.33773 h 5.753359 L 100.7652,253.65881 c 0.42749,-1.47402 0.40907,-2.74717 -1.449188,-2.79424 z m 12.704252,4.85087 c 1.302895,0 1.749041,1.71009 0.997942,3.81822 -0.751099,2.10813 -2.411185,3.81822 -3.714083,3.81822 -1.302898,0 -1.757722,-1.71009 -1.006621,-3.81822 0.751099,-2.10813 2.419864,-3.81822 3.722762,-3.81822 z"
       id="path3167" />
    <path
       sodipodi:nodetypes="ccccccccccc"
       inkscape:connector-curvature="0"
       id="path3171"
       d="m 106.37126,250.86465 -13.031617,32.57184 c -0.84183,2.51236 -0.273627,4.13171 2.599423,4.29131 h 18.769194 l 14.89329,-36.86315 h -5.82781 l -7.44664,18.97362 c -0.67048,1.14698 -1.17374,2.43545 -3.39955,2.26637 -1.33679,-0.31163 -1.97958,-1.19478 -1.21413,-3.23767 l 7.3657,-18.00232 z"
       style="fill:url(#linearGradient3980);fill-opacity:1;stroke:none;stroke-width:0.26458332" />
    <path
       style="fill:url(#linearGradient3978);fill-opacity:1;stroke:none;stroke-width:0.26458332"
       d="m 131.9327,250.86465 -2.30293,5.53465 h 4.53098 c 1.68316,0.23714 2.44467,1.17511 1.39673,3.48901 l -10.09944,24.63454 c -0.48051,1.5404 -0.27762,2.88339 1.71905,3.20495 h 13.10778 l 5.15717,-12.61471 c 0.75226,-1.586 0.78918,-2.82004 -1.18186,-3.0661 h -2.36369 c -1.82312,-0.20998 -1.4674,-2.63999 -0.67286,-3.91192 l 4.21841,-10.14986 c 0.46718,-1.09014 1.25757,-1.70323 2.47113,-1.69164 h 5.04972 l 2.3637,-5.42892 z"
       id="path3173"
       inkscape:connector-curvature="0"
       sodipodi:nodetypes="cccccccccccccccc" />
    <path
       inkscape:connector-curvature="0"
       id="path3943"
       d="m 159.61797,250.863 -13.01665,32.32468 c -1.14555,2.55881 -0.44067,3.92543 1.44051,4.53847 h 20.13242 l 13.47657,-33.46146 c 1.12815,-2.46589 0.11328,-3.07172 -1.21489,-3.40169 z m 12.3745,5.35419 c 0.0573,-0.001 0.11629,-0.004 0.17355,0 1.23406,0.13443 2.15731,0.99839 1.50126,3.33226 l -4.62525,10.91663 c -0.6226,1.05679 -1.53123,1.7128 -2.80292,1.45786 -1.66344,-0.37288 -1.68424,-1.60575 -1.42315,-2.71614 l 4.99839,-11.40258 c 0.4764,-0.96936 1.31919,-1.57051 2.17812,-1.58803 z"
       style="fill:url(#linearGradient3976);fill-opacity:1;stroke:none;stroke-width:0.26458332" />
    <path
       sodipodi:type="star"
       style="fill:#ffffff;fill-opacity:1;stroke:none"
       id="path4105"
       sodipodi:sides="5"
       sodipodi:cx="149.05743"
       sodipodi:cy="888.57861"
       sodipodi:r1="25.645163"
       sodipodi:r2="9.6799641"
       sodipodi:arg1="0.9244941"
       sodipodi:arg2="1.5435626"
       inkscape:flatsided="false"
       inkscape:rounded="0"
       inkscape:randomized="0"
       d="m 164.50194,909.05156 -15.18092,-10.79657 -14.9619,11.33871 5.57699,-17.77423 -15.40724,-10.72577 18.62769,-0.1885 5.4397,-17.9676 5.93556,17.65773 18.76916,-0.37883 -14.95931,11.10159 z"
       inkscape:transform-center-x="-2.8720949"
       inkscape:transform-center-y="-3.2587303"
       transform="matrix(0.37169537,0.004981,-0.10259111,0.35645031,242.44648,-124.706)" />
    <path
       transform="matrix(0.37169537,0.004981,-0.10259111,0.35645031,265.20067,-124.706)"
       inkscape:transform-center-y="-3.2587303"
       inkscape:transform-center-x="-2.8720051"
       d="m 164.50194,909.05156 -15.18092,-10.79657 -14.9619,11.33871 5.57699,-17.77423 -15.40724,-10.72577 18.62769,-0.1885 5.4397,-17.9676 5.93556,17.65773 18.76916,-0.37883 -14.95931,11.10159 z"
       inkscape:randomized="0"
       inkscape:rounded="0"
       inkscape:flatsided="false"
       sodipodi:arg2="1.5435626"
       sodipodi:arg1="0.9244941"
       sodipodi:r2="9.6799641"
       sodipodi:r1="25.645163"
       sodipodi:cy="888.57861"
       sodipodi:cx="149.05743"
       sodipodi:sides="5"
       id="path4109"
       style="fill:#ffffff;fill-opacity:1;stroke:none"
       sodipodi:type="star" />
    <path
       sodipodi:type="star"
       style="fill:#ffffff;fill-opacity:1;stroke:none"
       id="path4113"
       sodipodi:sides="5"
       sodipodi:cx="149.05743"
       sodipodi:cy="888.57861"
       sodipodi:r1="25.645163"
       sodipodi:r2="9.6799641"
       sodipodi:arg1="0.9244941"
       sodipodi:arg2="1.5435626"
       inkscape:flatsided="false"
       inkscape:rounded="0"
       inkscape:randomized="0"
       d="m 164.50194,909.05156 -15.18092,-10.79657 -14.9619,11.33871 5.57699,-17.77423 -15.40724,-10.72577 18.62769,-0.1885 5.4397,-17.9676 5.93556,17.65773 18.76916,-0.37883 -14.95931,11.10159 z"
       inkscape:transform-center-x="-2.8720709"
       inkscape:transform-center-y="-3.2587303"
       transform="matrix(0.37169537,0.004981,-0.10259111,0.35645031,288.11404,-124.706)" />
    <path
       transform="matrix(0.37169537,0.004981,-0.10259111,0.35645031,44.717604,-51.186673)"
       inkscape:transform-center-y="-3.2587354"
       inkscape:transform-center-x="-2.8721028"
       d="m 164.50194,909.05156 -15.18092,-10.79657 -14.9619,11.33871 5.57699,-17.77423 -15.40724,-10.72577 18.62769,-0.1885 5.4397,-17.9676 5.93556,17.65773 18.76916,-0.37883 -14.95931,11.10159 z"
       inkscape:randomized="0"
       inkscape:rounded="0"
       inkscape:flatsided="false"
       sodipodi:arg2="1.5435626"
       sodipodi:arg1="0.9244941"
       sodipodi:r2="9.6799641"
       sodipodi:r1="25.645163"
       sodipodi:cy="888.57861"
       sodipodi:cx="149.05743"
       sodipodi:sides="5"
       id="path4127"
       style="fill:#ffffff;fill-opacity:1;stroke:none"
       sodipodi:type="star" />
    <path
       sodipodi:type="star"
       style="fill:#ffffff;fill-opacity:1;stroke:none"
       id="path4129"
       sodipodi:sides="5"
       sodipodi:cx="149.05743"
       sodipodi:cy="888.57861"
       sodipodi:r1="25.645163"
       sodipodi:r2="9.6799641"
       sodipodi:arg1="0.9244941"
       sodipodi:arg2="1.5435626"
       inkscape:flatsided="false"
       inkscape:rounded="0"
       inkscape:randomized="0"
       d="m 164.50194,909.05156 -15.18092,-10.79657 -14.9619,11.33871 5.57699,-17.77423 -15.40724,-10.72577 18.62769,-0.1885 5.4397,-17.9676 5.93556,17.65773 18.76916,-0.37883 -14.95931,11.10159 z"
       inkscape:transform-center-x="-2.8721024"
       inkscape:transform-center-y="-3.2587354"
       transform="matrix(0.37169537,0.004981,-0.10259111,0.35645031,66.674662,-51.186673)" />
    <path
       transform="matrix(0.37169537,0.004981,-0.10259111,0.35645031,89.269158,-51.186673)"
       inkscape:transform-center-y="-3.2587354"
       inkscape:transform-center-x="-2.872102"
       d="m 164.50194,909.05156 -15.18092,-10.79657 -14.9619,11.33871 5.57699,-17.77423 -15.40724,-10.72577 18.62769,-0.1885 5.4397,-17.9676 5.93556,17.65773 18.76916,-0.37883 -14.95931,11.10159 z"
       inkscape:randomized="0"
       inkscape:rounded="0"
       inkscape:flatsided="false"
       sodipodi:arg2="1.5435626"
       sodipodi:arg1="0.9244941"
       sodipodi:r2="9.6799641"
       sodipodi:r1="25.645163"
       sodipodi:cy="888.57861"
       sodipodi:cx="149.05743"
       sodipodi:sides="5"
       id="path4131"
       style="fill:#ffffff;fill-opacity:1;stroke:none"
       sodipodi:type="star" />
  </g>
</svg>
